<svg width="46" height="36" viewBox="0 0 46 36" fill="none" xmlns="http://www.w3.org/2000/svg">
<path d="M1.76258 4.23769C1.07922 3.55408 1.07914 2.44622 1.76235 1.76252C1.76241 1.76246 1.76247 1.7624 1.76253 1.76233C1.76256 1.76231 1.76258 1.76229 1.7626 1.76226C2.44615 1.07943 3.55419 1.07945 4.23785 1.76256L19.2352 16.7646L19.2353 16.7647C19.919 17.4483 19.919 18.5516 19.2353 19.2353L19.2353 19.2353L4.23764 34.2353C3.55395 34.9189 2.44604 34.9189 1.76256 34.2353C1.07913 33.5516 1.07915 32.4483 1.7626 31.7646L1.76263 31.7646L14.9914 18.5302L15.5214 17.9999L14.9913 17.4697L1.7626 4.23771C1.7626 4.2377 1.76259 4.23769 1.76258 4.23769ZM43 31.25C43.9686 31.25 44.75 32.0314 44.75 33C44.75 33.9686 43.9686 34.75 43 34.75H20.5C19.5314 34.75 18.75 33.9686 18.75 33C18.75 32.0314 19.5314 31.25 20.5 31.25H43Z" stroke="#3294F8" stroke-width="1.5"/>
</svg>
