<svg width="1408" height="287" viewBox="0 0 1408 287" fill="none" xmlns="http://www.w3.org/2000/svg">
<g clip-path="url(#clip0_401_609)">
<rect width="1440" height="296" transform="translate(-32 -9)" fill="#0B1B2B"/>
<g filter="url(#filter0_f_401_609)">
<circle cx="-44" cy="13" r="118" fill="#14589C"/>
</g>
<g filter="url(#filter1_f_401_609)">
<circle cx="1323.07" cy="33.9365" r="77.6256" transform="rotate(15 1323.07 33.9365)" fill="#14589C"/>
</g>
<rect x="180" y="116" width="69" height="3" rx="1.5" fill="#1562AF" fill-opacity="0.14"/>
<rect x="67" y="116" width="106" height="3" rx="1.5" fill="#1562AF" fill-opacity="0.14"/>
<rect x="-32" y="116" width="92" height="3" rx="1.5" fill="#1562AF" fill-opacity="0.14"/>
<rect x="255" y="116" width="77" height="3" rx="1.5" fill="#1562AF" fill-opacity="0.34"/>
<rect x="296" y="127" width="36" height="3" rx="1.5" fill="#1562AF" fill-opacity="0.14"/>
<rect x="152" y="127" width="137" height="3" rx="1.5" fill="#1562AF" fill-opacity="0.14"/>
<rect x="40" y="127" width="105" height="3" rx="1.5" fill="#1562AF" fill-opacity="0.34"/>
<rect x="-32" y="127" width="65" height="3" rx="1.5" fill="#1562AF" fill-opacity="0.14"/>
<rect x="-32" y="61" width="144" height="3" rx="1.5" fill="#1562AF" fill-opacity="0.14"/>
<rect x="119" y="61" width="136" height="3" rx="1.5" fill="#1562AF" fill-opacity="0.34"/>
<rect width="46" height="3" rx="1.5" transform="matrix(-1 0 0 1 308 61)" fill="#1562AF" fill-opacity="0.14"/>
<rect x="90" y="72" width="111" height="3" rx="1.5" fill="#1562AF" fill-opacity="0.14"/>
<rect x="90" y="213" width="111" height="3" rx="1.5" fill="#1562AF" fill-opacity="0.14"/>
<rect x="-32" y="72" width="115" height="3" rx="1.5" fill="#1562AF" fill-opacity="0.34"/>
<rect x="-32" y="213" width="115" height="3" rx="1.5" fill="#1562AF" fill-opacity="0.34"/>
<rect x="243" y="72" width="28" height="3" rx="1.5" fill="#1562AF" fill-opacity="0.34"/>
<rect x="208" y="72" width="28" height="3" rx="1.5" fill="#1562AF" fill-opacity="0.14"/>
<rect x="208" y="213" width="37" height="3" rx="1.5" fill="#1562AF" fill-opacity="0.14"/>
<rect x="278" y="72" width="83" height="3" rx="1.5" fill="#1562AF" fill-opacity="0.14"/>
<rect x="252" y="83" width="89" height="3" rx="1.5" fill="#1562AF" fill-opacity="0.14"/>
<rect x="252" y="224" width="19" height="3" rx="1.5" fill="#1562AF" fill-opacity="0.14"/>
<rect x="102" y="83" width="143" height="3" rx="1.5" fill="#1562AF" fill-opacity="0.34"/>
<rect x="102" y="224" width="143" height="3" rx="1.5" fill="#1562AF" fill-opacity="0.34"/>
<rect x="63" y="83" width="32" height="3" rx="1.5" fill="#1562AF" fill-opacity="0.14"/>
<rect x="63" y="224" width="32" height="3" rx="1.5" fill="#1562AF" fill-opacity="0.14"/>
<rect x="-32" y="83" width="88" height="3" rx="1.5" fill="#1562AF" fill-opacity="0.14"/>
<rect x="-32" y="224" width="88" height="3" rx="1.5" fill="#1562AF" fill-opacity="0.14"/>
<rect x="317" y="94" width="60" height="3" rx="1.5" fill="#1562AF" fill-opacity="0.34"/>
<rect x="169" y="94" width="142" height="3" rx="1.5" fill="#1562AF" fill-opacity="0.14"/>
<rect x="169" y="235" width="51" height="3" rx="1.5" fill="#1562AF" fill-opacity="0.14"/>
<rect x="227" y="235" width="62" height="3" rx="1.5" fill="#1562AF" fill-opacity="0.34"/>
<rect x="131" y="94" width="31" height="3" rx="1.5" fill="#1562AF" fill-opacity="0.14"/>
<rect x="74" y="94" width="51" height="3" rx="1.5" fill="#1562AF" fill-opacity="0.14"/>
<rect x="74" y="235" width="88" height="3" rx="1.5" fill="#1562AF" fill-opacity="0.14"/>
<rect y="94" width="67" height="3" rx="1.5" fill="#1562AF" fill-opacity="0.34"/>
<rect x="-32" y="235" width="99" height="3" rx="1.5" fill="#1562AF" fill-opacity="0.34"/>
<rect x="-32" y="105" width="72" height="3" rx="1.5" fill="#1562AF" fill-opacity="0.34"/>
<rect x="-32" y="246" width="72" height="3" rx="1.5" fill="#1562AF" fill-opacity="0.14"/>
<rect x="47" y="105" width="97" height="3" rx="1.5" fill="#1562AF" fill-opacity="0.14"/>
<rect x="47" y="246" width="55" height="3" rx="1.5" fill="#1562AF" fill-opacity="0.34"/>
<rect width="61" height="3" rx="1.5" transform="matrix(-1 0 0 1 1218 188)" fill="#1562AF" fill-opacity="0.14"/>
<rect width="94" height="3" rx="1.5" transform="matrix(-1 0 0 1 1318 188)" fill="#1562AF" fill-opacity="0.34"/>
<rect width="82" height="3" rx="1.5" transform="matrix(-1 0 0 1 1406 188)" fill="#1562AF" fill-opacity="0.14"/>
<rect width="68" height="3" rx="1.5" transform="matrix(-1 0 0 1 1151 188)" fill="#1562AF" fill-opacity="0.34"/>
<rect width="42" height="3" rx="1.5" transform="matrix(-1 0 0 1 1077 199)" fill="#1562AF" fill-opacity="0.34"/>
<rect width="32" height="3" rx="1.5" transform="matrix(-1 0 0 1 1115 199)" fill="#1562AF" fill-opacity="0.14"/>
<rect width="122" height="3" rx="1.5" transform="matrix(-1 0 0 1 1243 199)" fill="#1562AF" fill-opacity="0.14"/>
<rect width="93" height="3" rx="1.5" transform="matrix(-1 0 0 1 1342 199)" fill="#1562AF" fill-opacity="0.14"/>
<rect width="58" height="3" rx="1.5" transform="matrix(-1 0 0 1 1406 199)" fill="#1562AF" fill-opacity="0.34"/>
<rect width="118" height="3" rx="1.5" transform="matrix(-1 0 0 1 1406 21)" fill="#1562AF" fill-opacity="0.14"/>
<rect width="128" height="3" rx="1.5" transform="matrix(-1 0 0 1 1406 210)" fill="#1562AF" fill-opacity="0.14"/>
<rect width="112" height="3" rx="1.5" transform="matrix(-1 0 0 1 1282 21)" fill="#1562AF" fill-opacity="0.34"/>
<rect width="121" height="3" rx="1.5" transform="matrix(-1 0 0 1 1225 210)" fill="#1562AF" fill-opacity="0.14"/>
<rect x="1126" y="21" width="38" height="3" rx="1.5" fill="#1562AF" fill-opacity="0.14"/>
<rect x="1231" y="210" width="41" height="3" rx="1.5" fill="#1562AF" fill-opacity="0.34"/>
<rect width="92" height="3" rx="1.5" transform="matrix(-1 0 0 1 1306 32)" fill="#1562AF" fill-opacity="0.14"/>
<rect width="99" height="3" rx="1.5" transform="matrix(-1 0 0 1 1298 221)" fill="#1562AF" fill-opacity="0.14"/>
<rect width="94" height="3" rx="1.5" transform="matrix(-1 0 0 1 1406 32)" fill="#1562AF" fill-opacity="0.34"/>
<rect width="102" height="3" rx="1.5" transform="matrix(-1 0 0 1 1406 221)" fill="#1562AF" fill-opacity="0.34"/>
<rect width="23" height="3" rx="1.5" transform="matrix(-1 0 0 1 1180 32)" fill="#1562AF" fill-opacity="0.34"/>
<rect width="23" height="3" rx="1.5" transform="matrix(-1 0 0 1 1209 32)" fill="#1562AF" fill-opacity="0.14"/>
<rect width="62" height="3" rx="1.5" transform="matrix(-1 0 0 1 1193 221)" fill="#1562AF" fill-opacity="0.34"/>
<rect width="68" height="3" rx="1.5" transform="matrix(-1 0 0 1 1151 32)" fill="#1562AF" fill-opacity="0.14"/>
<rect width="79" height="3" rx="1.5" transform="matrix(-1 0 0 1 1154 75)" fill="#1562AF" fill-opacity="0.14"/>
<rect width="79" height="3" rx="1.5" transform="matrix(-1 0 0 1 1154 232)" fill="#1562AF" fill-opacity="0.34"/>
<rect width="127" height="3" rx="1.5" transform="matrix(-1 0 0 1 1287 75)" fill="#1562AF" fill-opacity="0.14"/>
<rect width="127" height="3" rx="1.5" transform="matrix(-1 0 0 1 1287 232)" fill="#1562AF" fill-opacity="0.14"/>
<rect width="29" height="3" rx="1.5" transform="matrix(-1 0 0 1 1322 75)" fill="#1562AF" fill-opacity="0.34"/>
<rect width="29" height="3" rx="1.5" transform="matrix(-1 0 0 1 1322 232)" fill="#1562AF" fill-opacity="0.34"/>
<rect width="78" height="3" rx="1.5" transform="matrix(-1 0 0 1 1406 75)" fill="#1562AF" fill-opacity="0.14"/>
<rect width="78" height="3" rx="1.5" transform="matrix(-1 0 0 1 1406 232)" fill="#1562AF" fill-opacity="0.14"/>
<rect width="53" height="3" rx="1.5" transform="matrix(-1 0 0 1 1096 86)" fill="#1562AF" fill-opacity="0.34"/>
<rect width="53" height="3" rx="1.5" transform="matrix(-1 0 0 1 1096 243)" fill="#1562AF" fill-opacity="0.14"/>
<rect width="126" height="3" rx="1.5" transform="matrix(-1 0 0 1 1228 86)" fill="#1562AF" fill-opacity="0.14"/>
<rect width="126" height="3" rx="1.5" transform="matrix(-1 0 0 1 1228 243)" fill="#1562AF" fill-opacity="0.14"/>
<rect width="27" height="3" rx="1.5" transform="matrix(-1 0 0 1 1261 86)" fill="#1562AF" fill-opacity="0.34"/>
<rect width="45" height="3" rx="1.5" transform="matrix(-1 0 0 1 1312 86)" fill="#1562AF" fill-opacity="0.14"/>
<rect width="78" height="3" rx="1.5" transform="matrix(-1 0 0 1 1312 243)" fill="#1562AF" fill-opacity="0.34"/>
<rect width="60" height="3" rx="1.5" transform="matrix(-1 0 0 1 1378 86)" fill="#1562AF" fill-opacity="0.14"/>
<rect width="88" height="3" rx="1.5" transform="matrix(-1 0 0 1 1406 243)" fill="#1562AF" fill-opacity="0.14"/>
<rect width="22" height="3" rx="1.5" transform="matrix(-1 0 0 1 1406 86)" fill="#1562AF" fill-opacity="0.14"/>
<rect width="64" height="3" rx="1.5" transform="matrix(-1 0 0 1 1406 97)" fill="#1562AF" fill-opacity="0.34"/>
<rect width="64" height="3" rx="1.5" transform="matrix(-1 0 0 1 1406 254)" fill="#1562AF" fill-opacity="0.34"/>
<rect width="86" height="3" rx="1.5" transform="matrix(-1 0 0 1 1336 97)" fill="#1562AF" fill-opacity="0.14"/>
<rect width="154" height="3" rx="1.5" transform="matrix(-1 0 0 1 1336 254)" fill="#1562AF" fill-opacity="0.14"/>
<g filter="url(#filter2_f_401_609)">
<rect x="240" y="226" width="891" height="52" fill="#14589C"/>
</g>
</g>
<defs>
<filter id="filter0_f_401_609" x="-562" y="-505" width="1036" height="1036" filterUnits="userSpaceOnUse" color-interpolation-filters="sRGB">
<feFlood flood-opacity="0" result="BackgroundImageFix"/>
<feBlend mode="normal" in="SourceGraphic" in2="BackgroundImageFix" result="shape"/>
<feGaussianBlur stdDeviation="200" result="effect1_foregroundBlur_401_609"/>
</filter>
<filter id="filter1_f_401_609" x="877.427" y="-411.708" width="891.29" height="891.29" filterUnits="userSpaceOnUse" color-interpolation-filters="sRGB">
<feFlood flood-opacity="0" result="BackgroundImageFix"/>
<feBlend mode="normal" in="SourceGraphic" in2="BackgroundImageFix" result="shape"/>
<feGaussianBlur stdDeviation="184" result="effect1_foregroundBlur_401_609"/>
</filter>
<filter id="filter2_f_401_609" x="28" y="14" width="1315" height="476" filterUnits="userSpaceOnUse" color-interpolation-filters="sRGB">
<feFlood flood-opacity="0" result="BackgroundImageFix"/>
<feBlend mode="normal" in="SourceGraphic" in2="BackgroundImageFix" result="shape"/>
<feGaussianBlur stdDeviation="106" result="effect1_foregroundBlur_401_609"/>
</filter>
<clipPath id="clip0_401_609">
<rect width="1440" height="296" fill="white" transform="translate(-32 -9)"/>
</clipPath>
</defs>
</svg>
